<?xml version="1.0" encoding="UTF-8"?>
<svg xmlns="http://www.w3.org/2000/svg" xmlns:xlink="http://www.w3.org/1999/xlink" width="973px" height="468px" viewBox="0 0 546 263" version="1.1">
<g id="surface1">
<path style=" stroke:none;fill-rule:nonzero;fill:rgb(0%,0%,0%);fill-opacity:1;" d="M 62.046875 38.191406 C 62.046875 39.015625 61.523438 39.691406 60.925781 39.691406 C 60.324219 39.691406 59.804688 40.214844 59.804688 40.8125 C 59.804688 41.410156 59.28125 41.9375 58.679688 41.9375 C 58.082031 41.9375 57.558594 42.460938 57.558594 43.058594 C 57.558594 43.660156 57.035156 44.183594 56.4375 44.183594 C 55.617188 44.183594 55.316406 45.082031 55.316406 47.550781 C 55.316406 50.023438 55.617188 50.921875 56.4375 50.921875 C 57.1875 50.921875 57.558594 51.671875 57.558594 53.167969 C 57.558594 54.667969 57.933594 55.414062 58.679688 55.414062 C 59.28125 55.414062 59.804688 55.941406 59.804688 56.539062 C 59.804688 57.289062 60.550781 57.664062 62.046875 57.664062 C 63.765625 57.664062 64.289062 57.960938 64.289062 59.160156 C 64.289062 60.433594 64.8125 60.65625 67.652344 60.65625 C 70.492188 60.65625 71.015625 60.433594 71.015625 59.160156 C 71.015625 57.960938 71.539062 57.664062 73.632812 57.664062 C 75.425781 57.664062 76.25 57.289062 76.25 56.539062 C 76.25 55.941406 76.773438 55.414062 77.371094 55.414062 C 78.191406 55.414062 78.492188 54.515625 78.492188 52.046875 C 78.492188 49.574219 78.789062 48.675781 79.613281 48.675781 C 80.210938 48.675781 80.734375 48.152344 80.734375 47.550781 C 80.734375 46.953125 80.210938 46.429688 79.613281 46.429688 C 78.863281 46.429688 78.492188 45.679688 78.492188 44.183594 C 78.492188 42.683594 78.117188 41.9375 77.371094 41.9375 C 76.773438 41.9375 76.25 41.410156 76.25 40.8125 C 76.25 40.214844 75.726562 39.691406 75.128906 39.691406 C 74.53125 39.691406 74.007812 39.015625 74.007812 38.191406 C 74.007812 36.84375 73.484375 36.695312 68.027344 36.695312 C 62.570312 36.695312 62.046875 36.84375 62.046875 38.191406 Z M 62.046875 38.191406 "/>
<path style=" stroke:none;fill-rule:nonzero;fill:rgb(0%,0%,0%);fill-opacity:1;" d="M 87.460938 38.191406 C 87.460938 39.015625 87.984375 39.691406 88.582031 39.691406 C 89.179688 39.691406 89.703125 40.214844 89.703125 40.8125 C 89.703125 41.5625 90.527344 41.9375 92.320312 41.9375 L 94.9375 41.9375 L 94.9375 197.699219 L 92.320312 197.699219 C 89.929688 197.699219 89.703125 197.847656 89.703125 199.945312 L 89.703125 202.191406 L 118.109375 202.191406 L 118.109375 199.945312 C 118.109375 198.449219 117.738281 197.699219 116.988281 197.699219 C 116.390625 197.699219 115.867188 197.175781 115.867188 196.574219 C 115.867188 195.976562 115.195312 195.453125 114.371094 195.453125 C 112.878906 195.453125 112.878906 194.929688 112.878906 116.074219 L 112.878906 36.695312 L 100.167969 36.695312 C 87.984375 36.695312 87.460938 36.769531 87.460938 38.191406 Z M 87.460938 38.191406 "/>
<path style=" stroke:none;fill-rule:nonzero;fill:rgb(0%,0%,0%);fill-opacity:1;" d="M 127.082031 39.316406 C 127.082031 41.710938 127.230469 41.9375 129.324219 41.9375 L 131.566406 41.9375 L 131.566406 197.699219 L 129.324219 197.699219 C 127.304688 197.699219 127.082031 197.925781 127.082031 199.945312 L 127.082031 202.191406 L 157.730469 202.191406 L 157.730469 199.945312 C 157.730469 197.847656 157.503906 197.699219 155.113281 197.699219 L 152.496094 197.699219 L 152.496094 36.695312 L 127.082031 36.695312 Z M 127.082031 39.316406 "/>
<path style=" stroke:none;fill-rule:nonzero;fill:rgb(0%,0%,0%);fill-opacity:1;" d="M 162.214844 38.191406 C 162.214844 39.015625 162.738281 39.691406 163.335938 39.691406 C 163.933594 39.691406 164.457031 40.214844 164.457031 40.8125 C 164.457031 41.5625 165.207031 41.9375 166.699219 41.9375 L 168.941406 41.9375 L 168.941406 46.429688 C 168.941406 49.949219 169.167969 50.921875 170.0625 50.921875 C 171.035156 50.921875 171.1875 52.570312 171.1875 61.40625 C 171.1875 70.242188 171.335938 71.890625 172.308594 71.890625 C 173.277344 71.890625 173.429688 73.914062 173.429688 85.746094 C 173.429688 97.578125 173.578125 99.597656 174.550781 99.597656 C 175.519531 99.597656 175.671875 101.246094 175.671875 110.082031 C 175.671875 120.042969 175.746094 120.566406 177.164062 120.566406 C 178.585938 120.566406 178.660156 121.089844 178.660156 131.050781 C 178.660156 139.886719 178.808594 141.535156 179.78125 141.535156 C 180.753906 141.535156 180.902344 143.332031 180.902344 153.515625 C 180.902344 163.699219 181.054688 165.5 182.023438 165.5 C 182.996094 165.5 183.144531 167.296875 183.144531 177.105469 C 183.144531 186.914062 183.296875 188.714844 184.265625 188.714844 C 185.164062 188.714844 185.390625 189.835938 185.390625 194.328125 C 185.390625 198.824219 185.613281 199.945312 186.511719 199.945312 C 187.109375 199.945312 187.632812 200.46875 187.632812 201.070312 C 187.632812 201.96875 188.828125 202.191406 193.613281 202.191406 L 199.59375 202.191406 L 199.59375 199.945312 C 199.59375 198.449219 199.964844 197.699219 200.714844 197.699219 C 201.609375 197.699219 201.835938 196.277344 201.835938 189.460938 C 201.835938 182.648438 202.058594 181.222656 202.957031 181.222656 C 203.925781 181.222656 204.078125 179.425781 204.078125 169.617188 C 204.078125 159.808594 204.226562 158.007812 205.199219 158.007812 C 206.171875 158.007812 206.320312 156.4375 206.320312 148.648438 C 206.320312 140.859375 206.46875 139.289062 207.441406 139.289062 C 208.414062 139.289062 208.5625 137.714844 208.5625 129.925781 C 208.5625 122.140625 208.710938 120.566406 209.683594 120.566406 C 210.65625 120.566406 210.804688 119.070312 210.804688 111.582031 C 210.804688 104.089844 211.03125 102.59375 211.925781 102.59375 C 212.898438 102.59375 213.046875 100.945312 213.046875 92.109375 C 213.046875 83.273438 213.195312 81.625 214.167969 81.625 C 215.140625 81.625 215.289062 80.054688 215.289062 72.265625 C 215.289062 64.476562 215.441406 62.90625 216.410156 62.90625 C 217.308594 62.90625 217.53125 61.480469 217.53125 54.667969 C 217.53125 46.953125 217.609375 46.429688 219.027344 46.429688 C 219.851562 46.429688 220.523438 45.90625 220.523438 45.304688 C 220.523438 44.707031 221.046875 44.183594 221.644531 44.183594 C 222.242188 44.183594 222.765625 43.660156 222.765625 43.058594 C 222.765625 42.460938 223.289062 41.9375 223.886719 41.9375 C 224.632812 41.9375 225.007812 41.113281 225.007812 39.316406 L 225.007812 36.695312 L 215.664062 36.695312 C 206.84375 36.695312 206.320312 36.769531 206.320312 38.191406 C 206.320312 39.015625 206.84375 39.691406 207.441406 39.691406 C 208.039062 39.691406 208.5625 40.214844 208.5625 40.8125 C 208.5625 41.5625 209.308594 41.9375 210.804688 41.9375 L 213.046875 41.9375 L 213.046875 54.667969 C 213.046875 65.449219 212.898438 67.398438 211.925781 67.398438 C 210.953125 67.398438 210.804688 69.195312 210.804688 79.003906 C 210.804688 88.816406 210.65625 90.613281 209.683594 90.613281 C 208.710938 90.613281 208.5625 92.183594 208.5625 99.972656 C 208.5625 107.761719 208.414062 109.332031 207.441406 109.332031 C 206.542969 109.332031 206.320312 110.757812 206.320312 117.570312 C 206.320312 124.386719 206.09375 125.808594 205.199219 125.808594 C 204.300781 125.808594 204.078125 127.15625 204.078125 133.671875 C 204.078125 140.1875 203.851562 141.535156 202.957031 141.535156 C 202.132812 141.535156 201.835938 140.636719 201.835938 138.164062 C 201.835938 135.695312 201.535156 134.796875 200.714844 134.796875 C 199.742188 134.796875 199.59375 132.847656 199.59375 122.0625 C 199.59375 109.859375 199.515625 109.332031 198.097656 109.332031 C 196.675781 109.332031 196.601562 108.808594 196.601562 92.859375 C 196.601562 78.707031 196.453125 76.382812 195.480469 76.382812 C 194.507812 76.382812 194.359375 74.363281 194.359375 62.53125 C 194.359375 50.699219 194.210938 48.675781 193.238281 48.675781 C 192.414062 48.675781 192.117188 47.777344 192.117188 45.304688 L 192.117188 41.9375 L 199.59375 41.9375 L 199.59375 36.695312 L 180.902344 36.695312 C 162.738281 36.695312 162.214844 36.769531 162.214844 38.191406 Z M 162.214844 38.191406 "/>
<path style=" stroke:none;fill-rule:nonzero;fill:rgb(0%,0%,0%);fill-opacity:1;" d="M 411.144531 39.316406 C 411.144531 41.710938 411.292969 41.9375 413.386719 41.9375 L 415.628906 41.9375 L 415.628906 197.699219 L 413.386719 197.699219 C 411.367188 197.699219 411.144531 197.925781 411.144531 199.945312 L 411.144531 202.191406 L 423.851562 202.191406 C 434.617188 202.191406 436.5625 202.042969 436.5625 201.070312 C 436.5625 200.46875 437.085938 199.945312 437.683594 199.945312 C 438.28125 199.945312 438.804688 199.421875 438.804688 198.824219 C 438.804688 198.222656 438.28125 197.699219 437.683594 197.699219 C 436.710938 197.699219 436.5625 193.429688 436.5625 164 C 436.5625 134.570312 436.410156 130.300781 435.441406 130.300781 C 434.46875 130.300781 434.316406 128.503906 434.316406 118.695312 C 434.316406 108.882812 434.46875 107.085938 435.441406 107.085938 C 436.335938 107.085938 436.5625 105.890625 436.5625 101.097656 C 436.5625 96.304688 436.785156 95.105469 437.683594 95.105469 C 438.28125 95.105469 438.804688 94.582031 438.804688 93.980469 C 438.804688 93.160156 439.699219 92.859375 442.167969 92.859375 L 445.53125 92.859375 L 445.53125 145.277344 C 445.53125 191.410156 445.382812 197.699219 444.410156 197.699219 C 443.664062 197.699219 443.289062 198.449219 443.289062 199.945312 L 443.289062 202.191406 L 468.703125 202.191406 L 468.703125 199.945312 C 468.703125 198.449219 468.332031 197.699219 467.582031 197.699219 C 466.613281 197.699219 466.460938 191.785156 466.460938 148.648438 C 466.460938 105.515625 466.3125 99.597656 465.339844 99.597656 C 464.445312 99.597656 464.21875 98.625 464.21875 95.105469 C 464.21875 91.585938 463.996094 90.613281 463.097656 90.613281 C 462.351562 90.613281 461.976562 89.863281 461.976562 88.367188 C 461.976562 86.34375 461.753906 86.117188 459.734375 86.117188 C 458.238281 86.117188 457.492188 85.746094 457.492188 84.996094 C 457.492188 84.097656 456.222656 83.871094 450.390625 83.871094 C 444.558594 83.871094 443.289062 84.097656 443.289062 84.996094 C 443.289062 85.59375 442.765625 86.117188 442.167969 86.117188 C 441.570312 86.117188 441.046875 86.644531 441.046875 87.242188 C 441.046875 87.992188 440.296875 88.367188 438.804688 88.367188 L 436.5625 88.367188 L 436.5625 64.027344 C 436.5625 42.910156 436.410156 39.691406 435.441406 39.691406 C 434.839844 39.691406 434.316406 39.015625 434.316406 38.191406 C 434.316406 36.769531 433.792969 36.695312 422.730469 36.695312 L 411.144531 36.695312 Z M 411.144531 39.316406 "/>
<path style=" stroke:none;fill-rule:nonzero;fill:rgb(0%,0%,0%);fill-opacity:1;" d="M 482.90625 38.191406 C 482.90625 39.015625 482.382812 39.691406 481.785156 39.691406 C 481.039062 39.691406 480.664062 40.4375 480.664062 41.9375 C 480.664062 43.433594 480.292969 44.183594 479.542969 44.183594 C 478.722656 44.183594 478.421875 45.082031 478.421875 47.550781 C 478.421875 50.023438 478.722656 50.921875 479.542969 50.921875 C 480.292969 50.921875 480.664062 51.671875 480.664062 53.167969 C 480.664062 54.667969 481.039062 55.414062 481.785156 55.414062 C 482.382812 55.414062 482.90625 55.941406 482.90625 56.539062 C 482.90625 57.289062 483.65625 57.664062 485.152344 57.664062 C 486.871094 57.664062 487.394531 57.960938 487.394531 59.160156 C 487.394531 60.433594 487.917969 60.65625 491.132812 60.65625 C 494.34375 60.65625 494.867188 60.433594 494.867188 59.160156 C 494.867188 57.960938 495.390625 57.664062 497.109375 57.664062 C 499.128906 57.664062 499.355469 57.4375 499.355469 55.414062 C 499.355469 53.917969 499.726562 53.167969 500.476562 53.167969 C 501.371094 53.167969 501.597656 52.046875 501.597656 47.550781 C 501.597656 43.058594 501.371094 41.9375 500.476562 41.9375 C 499.878906 41.9375 499.355469 41.410156 499.355469 40.8125 C 499.355469 40.214844 498.832031 39.691406 498.234375 39.691406 C 497.632812 39.691406 497.109375 39.015625 497.109375 38.191406 C 497.109375 36.769531 496.589844 36.695312 490.007812 36.695312 C 483.429688 36.695312 482.90625 36.769531 482.90625 38.191406 Z M 482.90625 38.191406 "/>
<path style=" stroke:none;fill-rule:nonzero;fill:rgb(0%,0%,0%);fill-opacity:1;" d="M 394.699219 77.507812 C 394.699219 78.257812 393.953125 78.628906 392.457031 78.628906 C 390.738281 78.628906 390.214844 78.929688 390.214844 80.128906 C 390.214844 81.101562 389.691406 81.625 388.71875 81.625 C 387.523438 81.625 387.222656 82.148438 387.222656 83.871094 C 387.222656 86.042969 387.074219 86.117188 383.859375 86.117188 C 381.394531 86.117188 380.496094 85.820312 380.496094 84.996094 C 380.496094 84.097656 379.074219 83.871094 372.273438 83.871094 C 365.46875 83.871094 364.050781 84.097656 364.050781 84.996094 C 364.050781 85.59375 363.527344 86.117188 362.929688 86.117188 C 362.332031 86.117188 361.808594 86.644531 361.808594 87.242188 C 361.808594 87.839844 361.285156 88.367188 360.6875 88.367188 C 360.089844 88.367188 359.566406 88.890625 359.566406 89.488281 C 359.566406 90.089844 359.042969 90.613281 358.441406 90.613281 C 357.84375 90.613281 357.320312 91.136719 357.320312 91.734375 C 357.320312 92.335938 356.796875 92.859375 356.199219 92.859375 C 355.453125 92.859375 355.078125 93.609375 355.078125 95.105469 C 355.078125 96.601562 354.707031 97.351562 353.957031 97.351562 C 353.210938 97.351562 352.835938 98.175781 352.835938 99.972656 C 352.835938 101.769531 352.464844 102.59375 351.714844 102.59375 C 350.820312 102.59375 350.59375 103.71875 350.59375 108.210938 C 350.59375 112.703125 350.371094 113.828125 349.472656 113.828125 C 348.5 113.828125 348.351562 116.371094 348.351562 132.546875 C 348.351562 148.722656 348.5 151.269531 349.472656 151.269531 C 350.371094 151.269531 350.59375 152.242188 350.59375 155.761719 C 350.59375 159.28125 350.820312 160.257812 351.714844 160.257812 C 352.464844 160.257812 352.835938 161.078125 352.835938 162.878906 C 352.835938 164.675781 353.210938 165.5 353.957031 165.5 C 354.707031 165.5 355.078125 166.246094 355.078125 167.746094 C 355.078125 169.242188 355.453125 169.992188 356.199219 169.992188 C 356.949219 169.992188 357.320312 170.742188 357.320312 172.238281 C 357.320312 173.734375 357.695312 174.484375 358.441406 174.484375 C 359.042969 174.484375 359.566406 175.007812 359.566406 175.609375 C 359.566406 176.207031 359.042969 176.730469 358.441406 176.730469 C 357.84375 176.730469 357.320312 177.253906 357.320312 177.855469 C 357.320312 178.679688 356.425781 178.976562 353.957031 178.976562 C 351.492188 178.976562 350.59375 179.277344 350.59375 180.101562 C 350.59375 180.699219 350.070312 181.222656 349.472656 181.222656 C 348.726562 181.222656 348.351562 182.046875 348.351562 183.84375 C 348.351562 185.941406 348.050781 186.464844 346.855469 186.464844 C 345.4375 186.464844 345.363281 186.992188 345.363281 194.328125 C 345.363281 201.667969 345.4375 202.191406 346.855469 202.191406 C 347.828125 202.191406 348.351562 202.714844 348.351562 203.691406 C 348.351562 204.515625 348.875 205.1875 349.472656 205.1875 C 350.21875 205.1875 350.59375 205.9375 350.59375 207.433594 C 350.59375 208.933594 350.21875 209.679688 349.472656 209.679688 C 348.875 209.679688 348.351562 210.207031 348.351562 210.804688 C 348.351562 211.402344 347.679688 211.925781 346.855469 211.925781 C 346.035156 211.925781 345.363281 212.453125 345.363281 213.050781 C 345.363281 213.648438 344.839844 214.175781 344.238281 214.175781 C 343.34375 214.175781 343.117188 215.597656 343.117188 222.410156 C 343.117188 229.226562 343.34375 230.648438 344.238281 230.648438 C 344.839844 230.648438 345.363281 231.171875 345.363281 231.773438 C 345.363281 232.371094 346.035156 232.894531 346.855469 232.894531 C 347.679688 232.894531 348.351562 233.421875 348.351562 234.019531 C 348.351562 234.617188 348.875 235.140625 349.472656 235.140625 C 350.070312 235.140625 350.59375 235.667969 350.59375 236.265625 C 350.59375 236.863281 351.117188 237.390625 351.714844 237.390625 C 352.3125 237.390625 352.835938 237.914062 352.835938 238.511719 C 352.835938 239.335938 353.734375 239.636719 356.199219 239.636719 C 358.667969 239.636719 359.566406 239.933594 359.566406 240.757812 C 359.566406 241.730469 361.210938 241.882812 370.03125 241.882812 C 378.851562 241.882812 380.496094 241.730469 380.496094 240.757812 C 380.496094 239.933594 381.394531 239.636719 383.859375 239.636719 C 386.328125 239.636719 387.222656 239.335938 387.222656 238.511719 C 387.222656 237.761719 388.046875 237.390625 389.839844 237.390625 C 391.632812 237.390625 392.457031 237.015625 392.457031 236.265625 C 392.457031 235.667969 392.980469 235.140625 393.578125 235.140625 C 394.175781 235.140625 394.699219 234.617188 394.699219 234.019531 C 394.699219 233.421875 395.222656 232.894531 395.820312 232.894531 C 396.566406 232.894531 396.941406 232.148438 396.941406 230.648438 C 396.941406 229.152344 397.316406 228.402344 398.0625 228.402344 C 398.886719 228.402344 399.183594 227.503906 399.183594 224.660156 C 399.183594 221.8125 399.484375 220.914062 400.304688 220.914062 C 401.203125 220.914062 401.425781 219.640625 401.425781 214.175781 C 401.425781 208.707031 401.203125 207.433594 400.304688 207.433594 C 399.484375 207.433594 399.183594 206.535156 399.183594 203.691406 C 399.183594 200.84375 398.886719 199.945312 398.0625 199.945312 C 397.316406 199.945312 396.941406 199.195312 396.941406 197.699219 C 396.941406 195.675781 396.71875 195.453125 394.699219 195.453125 C 393.203125 195.453125 392.457031 195.078125 392.457031 194.328125 C 392.457031 193.730469 391.933594 193.207031 391.335938 193.207031 C 390.738281 193.207031 390.214844 192.683594 390.214844 192.082031 C 390.214844 191.109375 387.746094 190.960938 372.648438 190.960938 C 357.546875 190.960938 355.078125 190.808594 355.078125 189.835938 C 355.078125 189.238281 354.554688 188.714844 353.957031 188.714844 C 353.210938 188.714844 352.835938 187.890625 352.835938 186.09375 C 352.835938 184.292969 353.210938 183.472656 353.957031 183.472656 C 354.554688 183.472656 355.078125 182.945312 355.078125 182.347656 C 355.078125 181.375 356.875 181.222656 366.667969 181.222656 C 376.457031 181.222656 378.253906 181.074219 378.253906 180.101562 C 378.253906 179.351562 379 178.976562 380.496094 178.976562 C 381.992188 178.976562 382.738281 178.601562 382.738281 177.855469 C 382.738281 177.253906 383.261719 176.730469 383.859375 176.730469 C 384.457031 176.730469 384.980469 176.207031 384.980469 175.609375 C 384.980469 175.007812 385.503906 174.484375 386.101562 174.484375 C 386.699219 174.484375 387.222656 173.960938 387.222656 173.363281 C 387.222656 172.761719 387.894531 172.238281 388.71875 172.238281 C 389.914062 172.238281 390.214844 171.714844 390.214844 169.992188 C 390.214844 168.492188 390.585938 167.746094 391.335938 167.746094 C 391.933594 167.746094 392.457031 167.21875 392.457031 166.621094 C 392.457031 166.023438 392.980469 165.5 393.578125 165.5 C 394.398438 165.5 394.699219 164.601562 394.699219 161.753906 C 394.699219 158.910156 394.996094 158.007812 395.820312 158.007812 C 396.71875 158.007812 396.941406 156.585938 396.941406 149.773438 C 396.941406 142.957031 397.164062 141.535156 398.0625 141.535156 C 399.035156 141.535156 399.183594 140.035156 399.183594 132.546875 C 399.183594 125.058594 399.035156 123.5625 398.0625 123.5625 C 397.164062 123.5625 396.941406 122.140625 396.941406 115.324219 C 396.941406 108.511719 396.71875 107.085938 395.820312 107.085938 C 394.996094 107.085938 394.699219 106.1875 394.699219 103.34375 C 394.699219 100.496094 394.398438 99.597656 393.578125 99.597656 C 392.828125 99.597656 392.457031 98.851562 392.457031 97.351562 C 392.457031 95.855469 392.082031 95.105469 391.335938 95.105469 C 390.4375 95.105469 390.214844 94.132812 390.214844 90.613281 C 390.214844 87.09375 390.4375 86.117188 391.335938 86.117188 C 391.933594 86.117188 392.457031 85.59375 392.457031 84.996094 C 392.457031 84.398438 392.980469 83.871094 393.578125 83.871094 C 394.398438 83.871094 394.699219 84.769531 394.699219 87.242188 C 394.699219 89.714844 394.996094 90.613281 395.820312 90.613281 C 396.566406 90.613281 396.941406 91.359375 396.941406 92.859375 C 396.941406 95.03125 397.089844 95.105469 400.304688 95.105469 C 402.773438 95.105469 403.667969 94.804688 403.667969 93.980469 C 403.667969 93.382812 404.191406 92.859375 404.789062 92.859375 C 405.6875 92.859375 405.910156 91.734375 405.910156 87.242188 C 405.910156 82.75 405.6875 81.625 404.789062 81.625 C 404.191406 81.625 403.667969 80.953125 403.667969 80.128906 C 403.667969 79.304688 403.144531 78.628906 402.546875 78.628906 C 401.949219 78.628906 401.425781 78.105469 401.425781 77.507812 C 401.425781 76.683594 400.53125 76.382812 398.0625 76.382812 C 395.597656 76.382812 394.699219 76.683594 394.699219 77.507812 Z M 376.011719 87.242188 C 376.011719 87.839844 376.535156 88.367188 377.132812 88.367188 C 378.101562 88.367188 378.253906 93.683594 378.253906 131.425781 C 378.253906 169.167969 378.101562 174.484375 377.132812 174.484375 C 376.535156 174.484375 376.011719 175.007812 376.011719 175.609375 C 376.011719 176.355469 375.261719 176.730469 373.769531 176.730469 C 372.273438 176.730469 371.523438 176.355469 371.523438 175.609375 C 371.523438 175.007812 371 174.484375 370.402344 174.484375 C 369.433594 174.484375 369.28125 169.167969 369.28125 131.425781 C 369.28125 93.683594 369.433594 88.367188 370.402344 88.367188 C 371 88.367188 371.523438 87.839844 371.523438 87.242188 C 371.523438 86.492188 372.273438 86.117188 373.769531 86.117188 C 375.261719 86.117188 376.011719 86.492188 376.011719 87.242188 Z M 387.222656 210.804688 C 387.222656 211.628906 388.121094 211.925781 390.960938 211.925781 C 393.800781 211.925781 394.699219 212.226562 394.699219 213.050781 C 394.699219 213.648438 395.222656 214.175781 395.820312 214.175781 C 396.71875 214.175781 396.941406 215.148438 396.941406 218.667969 C 396.941406 222.1875 396.71875 223.160156 395.820312 223.160156 C 395.074219 223.160156 394.699219 223.984375 394.699219 225.78125 C 394.699219 228.179688 394.550781 228.402344 392.457031 228.402344 C 390.960938 228.402344 390.214844 228.777344 390.214844 229.527344 C 390.214844 230.125 389.539062 230.648438 388.71875 230.648438 C 387.894531 230.648438 387.222656 231.171875 387.222656 231.773438 C 387.222656 232.597656 386.328125 232.894531 383.859375 232.894531 C 381.394531 232.894531 380.496094 233.195312 380.496094 234.019531 C 380.496094 234.917969 379.074219 235.140625 372.273438 235.140625 C 365.46875 235.140625 364.050781 234.917969 364.050781 234.019531 C 364.050781 233.195312 363.152344 232.894531 360.6875 232.894531 C 358.21875 232.894531 357.320312 232.597656 357.320312 231.773438 C 357.320312 231.171875 356.796875 230.648438 356.199219 230.648438 C 355.601562 230.648438 355.078125 230.125 355.078125 229.527344 C 355.078125 228.925781 354.554688 228.402344 353.957031 228.402344 C 353.359375 228.402344 352.835938 227.878906 352.835938 227.28125 C 352.835938 226.679688 352.3125 226.15625 351.714844 226.15625 C 350.820312 226.15625 350.59375 224.882812 350.59375 219.042969 C 350.59375 213.199219 350.820312 211.925781 351.714844 211.925781 C 352.3125 211.925781 352.835938 211.402344 352.835938 210.804688 C 352.835938 209.832031 355.230469 209.679688 370.03125 209.679688 C 384.832031 209.679688 387.222656 209.832031 387.222656 210.804688 Z M 387.222656 210.804688 "/>
<path style=" stroke:none;fill-rule:nonzero;fill:rgb(0%,0%,0%);fill-opacity:1;" d="M 53.074219 86.117188 C 53.074219 88.140625 53.300781 88.367188 55.316406 88.367188 L 57.558594 88.367188 L 57.558594 197.699219 L 55.316406 197.699219 C 53.824219 197.699219 53.074219 198.074219 53.074219 198.824219 C 53.074219 199.421875 53.597656 199.945312 54.195312 199.945312 C 54.792969 199.945312 55.316406 200.46875 55.316406 201.070312 C 55.316406 202.042969 57.335938 202.191406 69.148438 202.191406 L 82.976562 202.191406 L 82.976562 199.945312 C 82.976562 197.925781 82.753906 197.699219 80.734375 197.699219 L 78.492188 197.699219 L 78.492188 141.910156 C 78.492188 92.785156 78.339844 86.117188 77.371094 86.117188 C 76.773438 86.117188 76.25 85.59375 76.25 84.996094 C 76.25 84.023438 74.453125 83.871094 64.660156 83.871094 L 53.074219 83.871094 Z M 53.074219 86.117188 "/>
<path style=" stroke:none;fill-rule:nonzero;fill:rgb(0%,0%,0%);fill-opacity:1;" d="M 248.183594 84.996094 C 248.183594 85.746094 247.433594 86.117188 245.9375 86.117188 C 244.445312 86.117188 243.695312 86.492188 243.695312 87.242188 C 243.695312 87.839844 243.171875 88.367188 242.574219 88.367188 C 241.976562 88.367188 241.453125 88.890625 241.453125 89.488281 C 241.453125 90.089844 240.78125 90.613281 239.957031 90.613281 C 238.761719 90.613281 238.464844 91.136719 238.464844 92.859375 C 238.464844 94.355469 238.089844 95.105469 237.34375 95.105469 C 236.746094 95.105469 236.222656 95.628906 236.222656 96.230469 C 236.222656 96.828125 235.699219 97.351562 235.101562 97.351562 C 234.351562 97.351562 233.980469 98.175781 233.980469 99.972656 C 233.980469 101.769531 233.605469 102.59375 232.855469 102.59375 C 231.960938 102.59375 231.734375 103.566406 231.734375 107.085938 C 231.734375 110.605469 231.511719 111.582031 230.613281 111.582031 C 229.644531 111.582031 229.492188 115.699219 229.492188 144.15625 C 229.492188 172.613281 229.644531 176.730469 230.613281 176.730469 C 231.511719 176.730469 231.734375 177.929688 231.734375 182.722656 C 231.734375 187.515625 231.960938 188.714844 232.855469 188.714844 C 233.457031 188.714844 233.980469 189.238281 233.980469 189.835938 C 233.980469 190.433594 234.5 190.960938 235.101562 190.960938 C 235.847656 190.960938 236.222656 191.707031 236.222656 193.207031 C 236.222656 194.703125 236.59375 195.453125 237.34375 195.453125 C 237.941406 195.453125 238.464844 195.976562 238.464844 196.574219 C 238.464844 197.175781 239.136719 197.699219 239.957031 197.699219 C 240.78125 197.699219 241.453125 198.222656 241.453125 198.824219 C 241.453125 199.570312 242.203125 199.945312 243.695312 199.945312 C 245.191406 199.945312 245.9375 200.320312 245.9375 201.070312 C 245.9375 201.96875 247.359375 202.191406 254.160156 202.191406 C 260.964844 202.191406 262.386719 201.96875 262.386719 201.070312 C 262.386719 200.320312 263.132812 199.945312 264.628906 199.945312 C 266.121094 199.945312 266.871094 199.570312 266.871094 198.824219 C 266.871094 198.222656 267.394531 197.699219 267.992188 197.699219 C 268.738281 197.699219 269.113281 196.949219 269.113281 195.453125 C 269.113281 193.953125 269.488281 193.207031 270.234375 193.207031 C 270.832031 193.207031 271.355469 192.683594 271.355469 192.082031 C 271.355469 191.484375 271.878906 190.960938 272.476562 190.960938 C 273.222656 190.960938 273.597656 190.210938 273.597656 188.714844 C 273.597656 187.214844 273.972656 186.464844 274.71875 186.464844 C 275.617188 186.464844 275.839844 185.417969 275.839844 181.597656 C 275.839844 177.78125 276.066406 176.730469 276.960938 176.730469 C 277.933594 176.730469 278.082031 174.933594 278.082031 165.125 C 278.082031 155.3125 277.933594 153.515625 276.960938 153.515625 C 276.066406 153.515625 275.839844 154.714844 275.839844 159.507812 C 275.839844 164.300781 275.617188 165.5 274.71875 165.5 C 273.824219 165.5 273.597656 166.769531 273.597656 172.238281 C 273.597656 177.703125 273.375 178.976562 272.476562 178.976562 C 271.730469 178.976562 271.355469 179.726562 271.355469 181.222656 C 271.355469 182.722656 270.980469 183.472656 270.234375 183.472656 C 269.488281 183.472656 269.113281 184.292969 269.113281 186.09375 C 269.113281 187.890625 268.738281 188.714844 267.992188 188.714844 C 267.242188 188.714844 266.871094 189.460938 266.871094 190.960938 C 266.871094 192.457031 266.496094 193.207031 265.75 193.207031 C 265.152344 193.207031 264.628906 193.730469 264.628906 194.328125 C 264.628906 194.929688 264.105469 195.453125 263.507812 195.453125 C 262.910156 195.453125 262.386719 195.976562 262.386719 196.574219 C 262.386719 197.476562 261.339844 197.699219 257.527344 197.699219 C 253.714844 197.699219 252.667969 197.476562 252.667969 196.574219 C 252.667969 195.976562 252.144531 195.453125 251.546875 195.453125 C 250.648438 195.453125 250.425781 194.480469 250.425781 190.960938 C 250.425781 187.441406 250.199219 186.464844 249.304688 186.464844 C 248.332031 186.464844 248.183594 183.996094 248.183594 168.867188 C 248.183594 153.742188 248.332031 151.269531 249.304688 151.269531 C 250.125 151.269531 250.425781 150.371094 250.425781 147.898438 L 250.425781 144.53125 L 264.253906 144.53125 C 277.558594 144.53125 278.082031 144.457031 278.082031 143.03125 C 278.082031 142.207031 278.605469 141.535156 279.203125 141.535156 C 280.101562 141.535156 280.324219 140.1875 280.324219 133.671875 C 280.324219 127.15625 280.101562 125.808594 279.203125 125.808594 C 278.234375 125.808594 278.082031 124.160156 278.082031 115.324219 C 278.082031 106.488281 277.933594 104.839844 276.960938 104.839844 C 276.140625 104.839844 275.839844 103.941406 275.839844 101.097656 C 275.839844 98.25 275.542969 97.351562 274.71875 97.351562 C 273.972656 97.351562 273.597656 96.601562 273.597656 95.105469 C 273.597656 93.609375 273.222656 92.859375 272.476562 92.859375 C 271.878906 92.859375 271.355469 92.335938 271.355469 91.734375 C 271.355469 91.136719 270.832031 90.613281 270.234375 90.613281 C 269.636719 90.613281 269.113281 90.089844 269.113281 89.488281 C 269.113281 88.890625 268.589844 88.367188 267.992188 88.367188 C 267.394531 88.367188 266.871094 87.839844 266.871094 87.242188 C 266.871094 86.492188 266.121094 86.117188 264.628906 86.117188 C 263.132812 86.117188 262.386719 85.746094 262.386719 84.996094 C 262.386719 84.097656 261.113281 83.871094 255.285156 83.871094 C 249.453125 83.871094 248.183594 84.097656 248.183594 84.996094 Z M 257.152344 88.367188 C 257.152344 89.863281 257.527344 90.613281 258.273438 90.613281 C 259.246094 90.613281 259.394531 93.832031 259.394531 114.949219 L 259.394531 139.289062 L 250.425781 139.289062 L 250.425781 125.433594 C 250.425781 113.601562 250.273438 111.582031 249.304688 111.582031 C 248.332031 111.582031 248.183594 110.007812 248.183594 102.21875 C 248.183594 94.429688 248.332031 92.859375 249.304688 92.859375 C 250.050781 92.859375 250.425781 92.109375 250.425781 90.613281 C 250.425781 89.113281 250.796875 88.367188 251.546875 88.367188 C 252.144531 88.367188 252.667969 87.839844 252.667969 87.242188 C 252.667969 86.492188 253.414062 86.117188 254.910156 86.117188 C 256.929688 86.117188 257.152344 86.34375 257.152344 88.367188 Z M 257.152344 88.367188 "/>
<path style=" stroke:none;fill-rule:nonzero;fill:rgb(0%,0%,0%);fill-opacity:1;" d="M 285.558594 84.996094 C 285.558594 85.59375 286.082031 86.117188 286.679688 86.117188 C 287.277344 86.117188 287.800781 86.644531 287.800781 87.242188 C 287.800781 87.992188 288.546875 88.367188 290.042969 88.367188 L 292.285156 88.367188 L 292.285156 197.699219 L 290.042969 197.699219 C 288.027344 197.699219 287.800781 197.925781 287.800781 199.945312 L 287.800781 202.191406 L 317.703125 202.191406 L 317.703125 199.945312 C 317.703125 197.773438 317.554688 197.699219 314.339844 197.699219 L 310.976562 197.699219 L 310.976562 155.761719 C 310.976562 118.992188 311.125 113.828125 312.097656 113.828125 C 312.992188 113.828125 313.21875 112.554688 313.21875 106.710938 C 313.21875 100.871094 313.441406 99.597656 314.339844 99.597656 C 315.160156 99.597656 315.460938 98.699219 315.460938 96.230469 C 315.460938 93.757812 315.757812 92.859375 316.582031 92.859375 C 317.179688 92.859375 317.703125 92.335938 317.703125 91.734375 C 317.703125 91.136719 318.226562 90.613281 318.824219 90.613281 C 319.421875 90.613281 319.945312 90.089844 319.945312 89.488281 C 319.945312 88.738281 320.691406 88.367188 322.1875 88.367188 C 324.207031 88.367188 324.429688 88.589844 324.429688 90.613281 C 324.429688 92.109375 324.058594 92.859375 323.308594 92.859375 C 322.5625 92.859375 322.1875 93.609375 322.1875 95.105469 C 322.1875 96.601562 321.8125 97.351562 321.066406 97.351562 C 320.09375 97.351562 319.945312 98.925781 319.945312 106.710938 C 319.945312 114.5 320.09375 116.074219 321.066406 116.074219 C 321.664062 116.074219 322.1875 116.597656 322.1875 117.195312 C 322.1875 117.796875 322.710938 118.320312 323.308594 118.320312 C 323.90625 118.320312 324.429688 118.84375 324.429688 119.441406 C 324.429688 120.265625 325.328125 120.566406 328.167969 120.566406 C 331.007812 120.566406 331.90625 120.265625 331.90625 119.441406 C 331.90625 118.84375 332.429688 118.320312 333.027344 118.320312 C 333.625 118.320312 334.148438 117.796875 334.148438 117.195312 C 334.148438 116.597656 334.671875 116.074219 335.269531 116.074219 C 336.015625 116.074219 336.390625 115.324219 336.390625 113.828125 C 336.390625 112.328125 336.765625 111.582031 337.511719 111.582031 C 338.410156 111.582031 338.632812 110.15625 338.632812 103.34375 C 338.632812 96.527344 338.410156 95.105469 337.511719 95.105469 C 336.765625 95.105469 336.390625 94.355469 336.390625 92.859375 C 336.390625 91.359375 336.015625 90.613281 335.269531 90.613281 C 334.523438 90.613281 334.148438 89.863281 334.148438 88.367188 C 334.148438 86.34375 333.925781 86.117188 331.90625 86.117188 C 330.410156 86.117188 329.664062 85.746094 329.664062 84.996094 C 329.664062 84.097656 328.617188 83.871094 324.804688 83.871094 C 320.992188 83.871094 319.945312 84.097656 319.945312 84.996094 C 319.945312 85.59375 319.421875 86.117188 318.824219 86.117188 C 318.226562 86.117188 317.703125 86.644531 317.703125 87.242188 C 317.703125 87.839844 317.179688 88.367188 316.582031 88.367188 C 315.984375 88.367188 315.460938 88.890625 315.460938 89.488281 C 315.460938 90.089844 314.9375 90.613281 314.339844 90.613281 C 313.742188 90.613281 313.21875 91.136719 313.21875 91.734375 C 313.21875 92.335938 312.695312 92.859375 312.097656 92.859375 C 311.199219 92.859375 310.976562 91.886719 310.976562 88.367188 L 310.976562 83.871094 L 298.265625 83.871094 C 287.503906 83.871094 285.558594 84.023438 285.558594 84.996094 Z M 285.558594 84.996094 "/>
<path style=" stroke:none;fill-rule:nonzero;fill:rgb(0%,0%,0%);fill-opacity:1;" d="M 476.179688 86.117188 C 476.179688 88.140625 476.40625 88.367188 478.421875 88.367188 L 480.664062 88.367188 L 480.664062 197.699219 L 478.421875 197.699219 C 476.40625 197.699219 476.179688 197.925781 476.179688 199.945312 L 476.179688 202.191406 L 490.007812 202.191406 C 501.820312 202.191406 503.839844 202.042969 503.839844 201.070312 C 503.839844 200.46875 504.363281 199.945312 504.960938 199.945312 C 505.558594 199.945312 506.082031 199.421875 506.082031 198.824219 C 506.082031 198.074219 505.335938 197.699219 503.839844 197.699219 L 501.597656 197.699219 L 501.597656 141.910156 C 501.597656 92.785156 501.445312 86.117188 500.476562 86.117188 C 499.878906 86.117188 499.355469 85.59375 499.355469 84.996094 C 499.355469 84.023438 497.558594 83.871094 487.765625 83.871094 L 476.179688 83.871094 Z M 476.179688 86.117188 "/>
</g>
</svg>
